:SAMPLES-PER-SECOND 24
:FULLY-SPECIFIED
:DEGREES
593
root  2.59357 37.9602 23.5449 6.55273 -53.1341 -2.26883
RightUpLeg  -11.5699 0.545558 -7.17511
RightLeg  33.5095 -2.82803 -2.2682
RightFoot  -21.8785 0.54255 7.48364
RightToes  -2.08645e-008 3.77894e-005 6.81332e-007
Spine  4.12903 0.314878 0.0527137
Spine1  0.664024 -0.215429 3.03496
HEad  -31.297 31.1693 -15.9748
LeftShoulder1  7.66103 -13.4858 -38.9398
LeftArm  -2.20643 20.9761 -27.893
LeftForeArm  172.976 -66.7858 -157.562
LeftHand  -0.672094 1.43183 19.6462
RightShoulder  3.88035 6.63725 32.3782
RightArm  13.7587 -18.6694 29.7708
RightForeArm  157.724 72.9181 146.78
RightHand  -1.10346 8.03604 -9.87205
LeftUpLeg  -15.4063 -6.41569 13.3012
LeftLeg  30.1281 7.43639 5.01668
LeftFoot  -14.2082 -0.354476 -17.4411
LeftToes  1.24767e-006 1.47042e-008 1.32732e-009
594
root  2.6778 37.6358 23.4514 6.0332 -53.8432 -2.17807
RightUpLeg  -11.8924 1.95937 -7.16049
RightLeg  34.7017 -3.55115 -2.89422
RightFoot  -23.7183 0.664235 7.60231
RightToes  -2.08645e-008 3.77894e-005 6.81332e-007
Spine  3.55748 0.395526 -0.377088
Spine1  2.60016 -0.206775 2.96004
HEad  -34.1986 31.3654 -16.6949
LeftShoulder1  8.01792 -13.7591 -40.2294
LeftArm  -3.56703 16.7479 -26.5446
LeftForeArm  176.533 -67.4901 -157.229
LeftHand  -0.66667 1.53959 20.0164
RightShoulder  3.96156 6.68664 32.9904
RightArm  11.2954 -18.2631 30.2183
RightForeArm  156.665 74.0294 144.271
RightHand  -0.9728 8.55539 -8.44699
LeftUpLeg  -15.4427 -7.96377 12.876
LeftLeg  31.6179 9.81652 6.80734
LeftFoot  -15.6222 -0.566922 -17.5378
LeftToes  1.24767e-006 1.47042e-008 1.32732e-009
595
root  2.57459 38.1949 23.5145 5.24292 -55.016 -0.758514
RightUpLeg  -10.7129 2.79987 -8.055
RightLeg  31.0728 -3.50925 -2.52793
RightFoot  -21.1776 0.517926 7.65986
RightToes  -2.08645e-008 3.77894e-005 6.81332e-007
Spine  1.99731 0.418725 -2.24427
Spine1  3.0087 -0.310843 3.52566
HEad  -34.3717 33.0052 -16.4966
LeftShoulder1  7.92131 -13.6644 -39.9391
LeftArm  -3.47408 18.7035 -27.7887
LeftForeArm  179.025 -66.7629 -158.254
LeftHand  -0.670158 1.33534 19.1241
RightShoulder  4.00232 6.70846 33.3061
RightArm  10.6652 -22.0165 31.6323
RightForeArm  156.718 73.8015 144.788
RightHand  -0.879849 8.64118 -7.63579
LeftUpLeg  -13.0383 -6.20732 11.9302
LeftLeg  26.7346 9.37297 5.44423
LeftFoot  -12.743 -0.145 -17.645
LeftToes  1.24767e-006 1.47042e-008 1.32732e-009
596
root  2.43123 39.4662 23.6828 5.75122 -56.1205 0.347534
RightUpLeg  -9.31053 3.42392 -8.98956
RightLeg  23.8788 -2.87827 -1.58261
RightFoot  -13.4962 0.0589294 7.95462
RightToes  -2.08645e-008 3.77894e-005 6.81332e-007
Spine  0.0531373 0.0571661 -3.64885
Spine1  1.86292 -0.695648 4.23682
HEad  -32.2364 35.4471 -16.1893
LeftShoulder1  7.58539 -13.3546 -38.8498
LeftArm  -1.60465 24.5104 -29.8281
LeftForeArm  178.479 -64.8237 -160.004
LeftHand  -0.681911 0.9454 17.7926
RightShoulder  3.97187 6.66596 33.1711
RightArm  11.9118 -26.9976 32.7492
RightForeArm  157.244 73.1701 146.215
RightHand  -0.875959 8.67102 -7.58976
LeftUpLeg  -11.0266 -0.0115464 11.401
LeftLeg  19.3845 5.45519 2.54434
LeftFoot  -4.34093 1.12102 -17.8326
LeftToes  1.24767e-006 1.47042e-008 1.32732e-009
597
root  2.30512 40.7092 23.8278 7.71777 -56.6353 0.538605
RightUpLeg  -8.83347 2.41045 -9.16815
RightLeg  16.8956 -2.04534 -1.28392
RightFoot  -5.21448 -0.570359 9.85556
RightToes  -2.08645e-008 3.77894e-005 6.81332e-007
Spine  -2.57471 -0.480446 -4.1614
Spine1  0.790051 -1.11777 4.40552
HEad  -29.0864 37.224 -15.1011
LeftShoulder1  7.22398 -13.0689 -37.5006
LeftArm  0.725825 29.6054 -30.8947
LeftForeArm  177.793 -63.0421 -161.392
LeftHand  -0.696866 0.00431124 15.103
RightShoulder  4.01632 6.73548 33.3388
RightArm  13.7655 -31.3159 31.9702
RightForeArm  158.2 72.2579 148.121
RightHand  -0.76869 8.67607 -6.7053
LeftUpLeg  -10.8086 6.54445 11.7157
LeftLeg  13.4736 -1.74349 -0.172323
LeftFoot  5.52751 3.04663 -20.4681
LeftToes  1.24767e-006 1.47042e-008 1.32732e-009
598
root  2.32395 41.3355 23.888 9.44556 -56.8065 -0.18689
RightUpLeg  -9.58713 1.07793 -8.61133
RightLeg  16.3745 -1.31423 -1.02537
RightFoot  -1.64141 -1.1109 12.909
RightToes  -2.08645e-008 3.77894e-005 6.81332e-007
Spine  -3.65216 -0.729537 -3.79634
Spine1  0.0780299 -1.31687 4.42959
HEad  -27.5294 37.6961 -14.1647
LeftShoulder1  7.09543 -13.055 -36.7854
LeftArm  2.47555 31.5002 -30.3389
LeftForeArm  178.297 -61.4075 -162.631
LeftHand  -0.630483 -0.577757 12.3758
RightShoulder  4.08096 6.86474 33.4721
RightArm  15.551 -33.6502 30.1046
RightForeArm  158.3 71.1436 150.054
RightHand  -0.694701 8.43277 -6.19622
LeftUpLeg  -10.8112 6.87893 12.9545
LeftLeg  10.4083 -5.38687 -0.703707
LeftFoot  10.6445 4.34142 -22.4347
LeftToes  1.24767e-006 1.47042e-008 1.32732e-009
599
root  2.50835 41.3323 23.8178 9.31885 -56.5547 -0.978302
RightUpLeg  -9.61493 1.64827 -7.99798
RightLeg  20.6716 -0.0846065 -0.217196
RightFoot  -2.15626 -1.14392 13.996
RightToes  -2.08645e-008 3.77894e-005 6.81332e-007
Spine  -2.47676 -0.892593 -4.11373
Spine1  0.667956 -1.72959 5.48894
HEad  -28.9874 37.2522 -14.894
LeftShoulder1  7.04714 -13.0466 -36.5222
LeftArm  3.33444 29.5663 -29.714
LeftForeArm  177.949 -60.3049 -163.342
LeftHand  -0.582624 -0.308323 11.9705
RightShoulder  3.98362 6.82694 32.6736
RightArm  16.645 -32.8342 28.8771
RightForeArm  157.727 70.5299 150.94
RightHand  -0.756504 8.22506 -6.80554
LeftUpLeg  -10.7204 2.9688 14.1876
LeftLeg  11.4041 -1.59909 1.09275
LeftFoot  11.5989 3.55768 -17.7587
LeftToes  1.24767e-006 1.47042e-008 1.32732e-009
